<svg width="362" height="52" viewBox="0 0 362 52" fill="none" xmlns="http://www.w3.org/2000/svg">
<mask id="path-1-outside-1_39_67" maskUnits="userSpaceOnUse" x="0" y="-1" width="362" height="53" fill="black">
<rect fill="white" y="-1" width="362" height="53"/>
<path d="M2.784 39V4.44H30.624C31.84 4.44 32.96 4.744 33.984 5.352C35.008 5.96 35.824 6.776 36.432 7.8C37.04 8.792 37.344 9.896 37.344 11.112V32.328C37.344 33.544 37.04 34.664 36.432 35.688C35.824 36.68 35.008 37.48 33.984 38.088C32.96 38.696 31.84 39 30.624 39H2.784ZM9.648 32.616H30.336C30.496 32.616 30.64 32.568 30.768 32.472C30.896 32.344 30.96 32.2 30.96 32.04V11.4C30.96 11.24 30.896 11.112 30.768 11.016C30.64 10.888 30.496 10.824 30.336 10.824H9.648C9.488 10.824 9.344 10.888 9.216 11.016C9.12 11.112 9.072 11.24 9.072 11.4V32.04C9.072 32.2 9.12 32.344 9.216 32.472C9.344 32.568 9.488 32.616 9.648 32.616ZM42.1991 39V11.16H48.4871V39H42.1991ZM42.1991 8.376V2.04H48.4871V8.376H42.1991ZM56.9678 49.992V43.656H73.7198C73.8798 43.656 74.0078 43.592 74.1038 43.464C74.2318 43.368 74.2958 43.24 74.2958 43.08V39H58.9358C57.7518 39 56.6478 38.696 55.6238 38.088C54.6318 37.48 53.8318 36.68 53.2238 35.688C52.6158 34.696 52.3118 33.592 52.3118 32.376V17.784C52.3118 16.568 52.6158 15.464 53.2238 14.472C53.8318 13.48 54.6318 12.68 55.6238 12.072C56.6478 11.464 57.7518 11.16 58.9358 11.16H74.0078C75.2238 11.16 76.3278 11.464 77.3198 12.072C78.3118 12.68 79.0958 13.48 79.6718 14.472C80.2798 15.464 80.5838 16.568 80.5838 17.784V43.368C80.5838 44.616 80.2958 45.736 79.7198 46.728C79.1438 47.72 78.3438 48.504 77.3198 49.08C76.3278 49.688 75.2238 49.992 74.0078 49.992H56.9678ZM59.1758 32.712H73.7198C73.8798 32.712 74.0078 32.664 74.1038 32.568C74.2318 32.44 74.2958 32.296 74.2958 32.136V18.024C74.2958 17.864 74.2318 17.736 74.1038 17.64C74.0078 17.512 73.8798 17.448 73.7198 17.448H59.1758C59.0158 17.448 58.8718 17.512 58.7438 17.64C58.6478 17.736 58.5998 17.864 58.5998 18.024V32.136C58.5998 32.296 58.6478 32.44 58.7438 32.568C58.8718 32.664 59.0158 32.712 59.1758 32.712ZM85.6054 39V11.16H91.8934V39H85.6054ZM85.6054 8.376V2.04H91.8934V8.376H85.6054ZM103.574 39C102.358 39 101.254 38.696 100.262 38.088C99.2703 37.48 98.4703 36.68 97.8623 35.688C97.2543 34.696 96.9503 33.592 96.9503 32.376V2.616H103.238V11.16H114.086V17.448H103.238V32.136C103.238 32.296 103.286 32.44 103.382 32.568C103.51 32.664 103.654 32.712 103.814 32.712H114.086V39H103.574ZM125.558 39C124.342 39 123.222 38.696 122.198 38.088C121.206 37.48 120.406 36.68 119.798 35.688C119.222 34.696 118.934 33.592 118.934 32.376V21.912H140.918V18.024C140.918 17.864 140.854 17.736 140.726 17.64C140.63 17.512 140.502 17.448 140.342 17.448H118.934V11.16H140.582C141.798 11.16 142.902 11.464 143.894 12.072C144.918 12.68 145.718 13.48 146.294 14.472C146.902 15.464 147.206 16.568 147.206 17.784V39H125.558ZM125.798 32.712H140.918V27.576H125.222V32.136C125.222 32.296 125.27 32.44 125.366 32.568C125.494 32.664 125.638 32.712 125.798 32.712ZM157.854 39C156.638 39 155.534 38.696 154.542 38.088C153.55 37.48 152.75 36.68 152.142 35.688C151.534 34.696 151.23 33.592 151.23 32.376V1.992H157.566V32.136C157.566 32.296 157.614 32.44 157.71 32.568C157.838 32.664 157.982 32.712 158.142 32.712H163.47V39H157.854ZM173.607 39C172.391 39 171.271 38.696 170.247 38.088C169.255 37.48 168.455 36.68 167.847 35.688C167.239 34.664 166.935 33.544 166.935 32.328V29.688H173.271V32.04C173.271 32.2 173.319 32.344 173.415 32.472C173.543 32.568 173.687 32.616 173.847 32.616H194.535C194.695 32.616 194.823 32.568 194.919 32.472C195.047 32.344 195.111 32.2 195.111 32.04V25.464C195.111 25.304 195.047 25.176 194.919 25.08C194.823 24.984 194.695 24.936 194.535 24.936H173.607C172.391 24.936 171.271 24.632 170.247 24.024C169.255 23.416 168.455 22.616 167.847 21.624C167.239 20.6 166.935 19.464 166.935 18.216V11.112C166.935 9.896 167.239 8.792 167.847 7.8C168.455 6.776 169.255 5.96 170.247 5.352C171.271 4.744 172.391 4.44 173.607 4.44H194.823C196.039 4.44 197.143 4.744 198.135 5.352C199.159 5.96 199.975 6.776 200.583 7.8C201.191 8.792 201.495 9.896 201.495 11.112V13.752H195.111V11.4C195.111 11.24 195.047 11.112 194.919 11.016C194.823 10.888 194.695 10.824 194.535 10.824H173.847C173.687 10.824 173.543 10.888 173.415 11.016C173.319 11.112 173.271 11.24 173.271 11.4V17.976C173.271 18.136 173.319 18.264 173.415 18.36C173.543 18.456 173.687 18.504 173.847 18.504H194.823C196.039 18.504 197.143 18.808 198.135 19.416C199.159 20.024 199.975 20.84 200.583 21.864C201.191 22.856 201.495 23.976 201.495 25.224V32.328C201.495 33.544 201.191 34.664 200.583 35.688C199.975 36.68 199.159 37.48 198.135 38.088C197.143 38.696 196.039 39 194.823 39H173.607ZM213.215 39C211.999 39 210.895 38.696 209.903 38.088C208.911 37.48 208.111 36.68 207.503 35.688C206.895 34.696 206.591 33.592 206.591 32.376V2.616H212.879V11.16H223.727V17.448H212.879V32.136C212.879 32.296 212.927 32.44 213.023 32.568C213.151 32.664 213.295 32.712 213.455 32.712H223.727V39H213.215ZM227.918 39V17.784C227.918 16.568 228.222 15.464 228.83 14.472C229.438 13.48 230.238 12.68 231.23 12.072C232.254 11.464 233.358 11.16 234.542 11.16H249.998V17.448H234.782C234.622 17.448 234.478 17.512 234.35 17.64C234.254 17.736 234.206 17.864 234.206 18.024V39H227.918ZM259.9 39C258.684 39 257.58 38.696 256.588 38.088C255.596 37.48 254.796 36.68 254.188 35.688C253.58 34.696 253.276 33.592 253.276 32.376V17.784C253.276 16.568 253.58 15.464 254.188 14.472C254.796 13.48 255.596 12.68 256.588 12.072C257.58 11.464 258.684 11.16 259.9 11.16H274.924C276.14 11.16 277.244 11.464 278.236 12.072C279.26 12.68 280.06 13.48 280.636 14.472C281.244 15.464 281.548 16.568 281.548 17.784V28.248H259.564V32.136C259.564 32.296 259.612 32.44 259.708 32.568C259.836 32.664 259.98 32.712 260.14 32.712H281.548V39H259.9ZM259.564 22.584H275.26V18.024C275.26 17.864 275.196 17.736 275.068 17.64C274.972 17.512 274.844 17.448 274.684 17.448H260.14C259.98 17.448 259.836 17.512 259.708 17.64C259.612 17.736 259.564 17.864 259.564 18.024V22.584ZM293.183 39C291.967 39 290.847 38.696 289.823 38.088C288.831 37.48 288.031 36.68 287.423 35.688C286.847 34.696 286.559 33.592 286.559 32.376V21.912H308.543V18.024C308.543 17.864 308.479 17.736 308.351 17.64C308.255 17.512 308.127 17.448 307.967 17.448H286.559V11.16H308.207C309.423 11.16 310.527 11.464 311.519 12.072C312.543 12.68 313.343 13.48 313.919 14.472C314.527 15.464 314.831 16.568 314.831 17.784V39H293.183ZM293.423 32.712H308.543V27.576H292.847V32.136C292.847 32.296 292.895 32.44 292.991 32.568C293.119 32.664 293.263 32.712 293.423 32.712ZM318.764 39V11.16H353.276C354.524 11.16 355.644 11.464 356.636 12.072C357.628 12.68 358.412 13.48 358.988 14.472C359.596 15.464 359.9 16.568 359.9 17.784V39H353.66V18.024C353.66 17.864 353.596 17.736 353.468 17.64C353.34 17.512 353.196 17.448 353.036 17.448H343.1C342.94 17.448 342.796 17.512 342.668 17.64C342.572 17.736 342.524 17.864 342.524 18.024V39H336.188V18.024C336.188 17.864 336.124 17.736 335.996 17.64C335.9 17.512 335.772 17.448 335.612 17.448H325.628C325.468 17.448 325.324 17.512 325.196 17.64C325.1 17.736 325.052 17.864 325.052 18.024V39H318.764Z"/>
</mask>
<path d="M2.784 39V4.44H30.624C31.84 4.44 32.96 4.744 33.984 5.352C35.008 5.96 35.824 6.776 36.432 7.8C37.04 8.792 37.344 9.896 37.344 11.112V32.328C37.344 33.544 37.04 34.664 36.432 35.688C35.824 36.68 35.008 37.48 33.984 38.088C32.96 38.696 31.84 39 30.624 39H2.784ZM9.648 32.616H30.336C30.496 32.616 30.64 32.568 30.768 32.472C30.896 32.344 30.96 32.2 30.96 32.04V11.4C30.96 11.24 30.896 11.112 30.768 11.016C30.64 10.888 30.496 10.824 30.336 10.824H9.648C9.488 10.824 9.344 10.888 9.216 11.016C9.12 11.112 9.072 11.24 9.072 11.4V32.04C9.072 32.2 9.12 32.344 9.216 32.472C9.344 32.568 9.488 32.616 9.648 32.616ZM42.1991 39V11.16H48.4871V39H42.1991ZM42.1991 8.376V2.04H48.4871V8.376H42.1991ZM56.9678 49.992V43.656H73.7198C73.8798 43.656 74.0078 43.592 74.1038 43.464C74.2318 43.368 74.2958 43.24 74.2958 43.08V39H58.9358C57.7518 39 56.6478 38.696 55.6238 38.088C54.6318 37.48 53.8318 36.68 53.2238 35.688C52.6158 34.696 52.3118 33.592 52.3118 32.376V17.784C52.3118 16.568 52.6158 15.464 53.2238 14.472C53.8318 13.48 54.6318 12.68 55.6238 12.072C56.6478 11.464 57.7518 11.16 58.9358 11.16H74.0078C75.2238 11.16 76.3278 11.464 77.3198 12.072C78.3118 12.68 79.0958 13.48 79.6718 14.472C80.2798 15.464 80.5838 16.568 80.5838 17.784V43.368C80.5838 44.616 80.2958 45.736 79.7198 46.728C79.1438 47.72 78.3438 48.504 77.3198 49.08C76.3278 49.688 75.2238 49.992 74.0078 49.992H56.9678ZM59.1758 32.712H73.7198C73.8798 32.712 74.0078 32.664 74.1038 32.568C74.2318 32.44 74.2958 32.296 74.2958 32.136V18.024C74.2958 17.864 74.2318 17.736 74.1038 17.64C74.0078 17.512 73.8798 17.448 73.7198 17.448H59.1758C59.0158 17.448 58.8718 17.512 58.7438 17.64C58.6478 17.736 58.5998 17.864 58.5998 18.024V32.136C58.5998 32.296 58.6478 32.44 58.7438 32.568C58.8718 32.664 59.0158 32.712 59.1758 32.712ZM85.6054 39V11.16H91.8934V39H85.6054ZM85.6054 8.376V2.04H91.8934V8.376H85.6054ZM103.574 39C102.358 39 101.254 38.696 100.262 38.088C99.2703 37.48 98.4703 36.68 97.8623 35.688C97.2543 34.696 96.9503 33.592 96.9503 32.376V2.616H103.238V11.16H114.086V17.448H103.238V32.136C103.238 32.296 103.286 32.44 103.382 32.568C103.51 32.664 103.654 32.712 103.814 32.712H114.086V39H103.574ZM125.558 39C124.342 39 123.222 38.696 122.198 38.088C121.206 37.48 120.406 36.68 119.798 35.688C119.222 34.696 118.934 33.592 118.934 32.376V21.912H140.918V18.024C140.918 17.864 140.854 17.736 140.726 17.64C140.63 17.512 140.502 17.448 140.342 17.448H118.934V11.16H140.582C141.798 11.16 142.902 11.464 143.894 12.072C144.918 12.68 145.718 13.48 146.294 14.472C146.902 15.464 147.206 16.568 147.206 17.784V39H125.558ZM125.798 32.712H140.918V27.576H125.222V32.136C125.222 32.296 125.27 32.44 125.366 32.568C125.494 32.664 125.638 32.712 125.798 32.712ZM157.854 39C156.638 39 155.534 38.696 154.542 38.088C153.55 37.48 152.75 36.68 152.142 35.688C151.534 34.696 151.23 33.592 151.23 32.376V1.992H157.566V32.136C157.566 32.296 157.614 32.44 157.71 32.568C157.838 32.664 157.982 32.712 158.142 32.712H163.47V39H157.854ZM173.607 39C172.391 39 171.271 38.696 170.247 38.088C169.255 37.48 168.455 36.68 167.847 35.688C167.239 34.664 166.935 33.544 166.935 32.328V29.688H173.271V32.04C173.271 32.2 173.319 32.344 173.415 32.472C173.543 32.568 173.687 32.616 173.847 32.616H194.535C194.695 32.616 194.823 32.568 194.919 32.472C195.047 32.344 195.111 32.2 195.111 32.04V25.464C195.111 25.304 195.047 25.176 194.919 25.08C194.823 24.984 194.695 24.936 194.535 24.936H173.607C172.391 24.936 171.271 24.632 170.247 24.024C169.255 23.416 168.455 22.616 167.847 21.624C167.239 20.6 166.935 19.464 166.935 18.216V11.112C166.935 9.896 167.239 8.792 167.847 7.8C168.455 6.776 169.255 5.96 170.247 5.352C171.271 4.744 172.391 4.44 173.607 4.44H194.823C196.039 4.44 197.143 4.744 198.135 5.352C199.159 5.96 199.975 6.776 200.583 7.8C201.191 8.792 201.495 9.896 201.495 11.112V13.752H195.111V11.4C195.111 11.24 195.047 11.112 194.919 11.016C194.823 10.888 194.695 10.824 194.535 10.824H173.847C173.687 10.824 173.543 10.888 173.415 11.016C173.319 11.112 173.271 11.24 173.271 11.4V17.976C173.271 18.136 173.319 18.264 173.415 18.36C173.543 18.456 173.687 18.504 173.847 18.504H194.823C196.039 18.504 197.143 18.808 198.135 19.416C199.159 20.024 199.975 20.84 200.583 21.864C201.191 22.856 201.495 23.976 201.495 25.224V32.328C201.495 33.544 201.191 34.664 200.583 35.688C199.975 36.68 199.159 37.48 198.135 38.088C197.143 38.696 196.039 39 194.823 39H173.607ZM213.215 39C211.999 39 210.895 38.696 209.903 38.088C208.911 37.48 208.111 36.68 207.503 35.688C206.895 34.696 206.591 33.592 206.591 32.376V2.616H212.879V11.16H223.727V17.448H212.879V32.136C212.879 32.296 212.927 32.44 213.023 32.568C213.151 32.664 213.295 32.712 213.455 32.712H223.727V39H213.215ZM227.918 39V17.784C227.918 16.568 228.222 15.464 228.83 14.472C229.438 13.48 230.238 12.68 231.23 12.072C232.254 11.464 233.358 11.16 234.542 11.16H249.998V17.448H234.782C234.622 17.448 234.478 17.512 234.35 17.64C234.254 17.736 234.206 17.864 234.206 18.024V39H227.918ZM259.9 39C258.684 39 257.58 38.696 256.588 38.088C255.596 37.48 254.796 36.68 254.188 35.688C253.58 34.696 253.276 33.592 253.276 32.376V17.784C253.276 16.568 253.58 15.464 254.188 14.472C254.796 13.48 255.596 12.68 256.588 12.072C257.58 11.464 258.684 11.16 259.9 11.16H274.924C276.14 11.16 277.244 11.464 278.236 12.072C279.26 12.68 280.06 13.48 280.636 14.472C281.244 15.464 281.548 16.568 281.548 17.784V28.248H259.564V32.136C259.564 32.296 259.612 32.44 259.708 32.568C259.836 32.664 259.98 32.712 260.14 32.712H281.548V39H259.9ZM259.564 22.584H275.26V18.024C275.26 17.864 275.196 17.736 275.068 17.64C274.972 17.512 274.844 17.448 274.684 17.448H260.14C259.98 17.448 259.836 17.512 259.708 17.64C259.612 17.736 259.564 17.864 259.564 18.024V22.584ZM293.183 39C291.967 39 290.847 38.696 289.823 38.088C288.831 37.48 288.031 36.68 287.423 35.688C286.847 34.696 286.559 33.592 286.559 32.376V21.912H308.543V18.024C308.543 17.864 308.479 17.736 308.351 17.64C308.255 17.512 308.127 17.448 307.967 17.448H286.559V11.16H308.207C309.423 11.16 310.527 11.464 311.519 12.072C312.543 12.68 313.343 13.48 313.919 14.472C314.527 15.464 314.831 16.568 314.831 17.784V39H293.183ZM293.423 32.712H308.543V27.576H292.847V32.136C292.847 32.296 292.895 32.44 292.991 32.568C293.119 32.664 293.263 32.712 293.423 32.712ZM318.764 39V11.16H353.276C354.524 11.16 355.644 11.464 356.636 12.072C357.628 12.68 358.412 13.48 358.988 14.472C359.596 15.464 359.9 16.568 359.9 17.784V39H353.66V18.024C353.66 17.864 353.596 17.736 353.468 17.64C353.34 17.512 353.196 17.448 353.036 17.448H343.1C342.94 17.448 342.796 17.512 342.668 17.64C342.572 17.736 342.524 17.864 342.524 18.024V39H336.188V18.024C336.188 17.864 336.124 17.736 335.996 17.64C335.9 17.512 335.772 17.448 335.612 17.448H325.628C325.468 17.448 325.324 17.512 325.196 17.64C325.1 17.736 325.052 17.864 325.052 18.024V39H318.764Z" fill="url(#paint0_linear_39_67)"/>
<path d="M2.784 39H0.784V41H2.784V39ZM2.784 4.44V2.44H0.784V4.44H2.784ZM33.984 5.352L32.9629 7.07171L32.9629 7.07171L33.984 5.352ZM36.432 7.8L34.7123 8.82108L34.7195 8.83315L34.7268 8.84512L36.432 7.8ZM36.432 35.688L38.1372 36.7331L38.1445 36.7212L38.1517 36.7091L36.432 35.688ZM33.984 38.088L32.9629 36.3683L33.984 38.088ZM30.768 32.472L31.968 34.072L32.0817 33.9867L32.1822 33.8862L30.768 32.472ZM30.768 11.016L29.3538 12.4302L29.4543 12.5307L29.568 12.616L30.768 11.016ZM9.216 11.016L10.6302 12.4302L10.6302 12.4302L9.216 11.016ZM9.216 32.472L7.616 33.672L7.78743 33.9006L8.016 34.072L9.216 32.472ZM2.784 39H4.784V4.44H2.784H0.784V39H2.784ZM2.784 4.44V6.44H30.624V4.44V2.44H2.784V4.44ZM30.624 4.44V6.44C31.4886 6.44 32.2547 6.6512 32.9629 7.07171L33.984 5.352L35.0051 3.63229C33.6653 2.8368 32.1914 2.44 30.624 2.44V4.44ZM33.984 5.352L32.9629 7.07171C33.6993 7.50892 34.2751 8.08472 34.7123 8.82108L36.432 7.8L38.1517 6.77892C37.3729 5.46728 36.3167 4.41107 35.0051 3.63229L33.984 5.352ZM36.432 7.8L34.7268 8.84512C35.1331 9.50806 35.344 10.2475 35.344 11.112H37.344H39.344C39.344 9.54454 38.9469 8.07594 38.1372 6.75488L36.432 7.8ZM37.344 11.112H35.344V32.328H37.344H39.344V11.112H37.344ZM37.344 32.328H35.344C35.344 33.1926 35.1328 33.9587 34.7123 34.6669L36.432 35.688L38.1517 36.7091C38.9472 35.3693 39.344 33.8954 39.344 32.328H37.344ZM36.432 35.688L34.7268 34.6429C34.2928 35.3511 33.7143 35.9222 32.9629 36.3683L33.984 38.088L35.0051 39.8077C36.3017 39.0378 37.3553 38.0089 38.1372 36.7331L36.432 35.688ZM33.984 38.088L32.9629 36.3683C32.2547 36.7888 31.4886 37 30.624 37V39V41C32.1914 41 33.6653 40.6032 35.0051 39.8077L33.984 38.088ZM30.624 39V37H2.784V39V41H30.624V39ZM9.648 32.616V34.616H30.336V32.616V30.616H9.648V32.616ZM30.336 32.616V34.616C30.9287 34.616 31.4938 34.4276 31.968 34.072L30.768 32.472L29.568 30.872C29.6666 30.798 29.7888 30.7302 29.9315 30.6826C30.0743 30.6351 30.2127 30.616 30.336 30.616V32.616ZM30.768 32.472L32.1822 33.8862C32.6316 33.4368 32.96 32.8018 32.96 32.04H30.96H28.96C28.96 31.8446 29.0009 31.6435 29.0844 31.4557C29.1657 31.2727 29.2697 31.1419 29.3538 31.0578L30.768 32.472ZM30.96 32.04H32.96V11.4H30.96H28.96V32.04H30.96ZM30.96 11.4H32.96C32.96 10.6105 32.5996 9.8897 31.968 9.41599L30.768 11.016L29.568 12.616C29.4133 12.4999 29.2457 12.3235 29.1231 12.0784C29.0006 11.8334 28.96 11.5934 28.96 11.4H30.96ZM30.768 11.016L32.1822 9.60179C31.7328 9.15241 31.0978 8.824 30.336 8.824V10.824V12.824C30.1406 12.824 29.9395 12.7831 29.7517 12.6996C29.5687 12.6183 29.4379 12.5143 29.3538 12.4302L30.768 11.016ZM30.336 10.824V8.824H9.648V10.824V12.824H30.336V10.824ZM9.648 10.824V8.824C8.88617 8.824 8.25116 9.15241 7.80179 9.60179L9.216 11.016L10.6302 12.4302C10.5461 12.5143 10.4153 12.6183 10.2323 12.6996C10.0445 12.7831 9.84342 12.824 9.648 12.824V10.824ZM9.216 11.016L7.80179 9.60178C7.26432 10.1393 7.072 10.8115 7.072 11.4H9.072H11.072C11.072 11.5197 11.0539 11.691 10.9807 11.8862C10.9051 12.0877 10.7855 12.2749 10.6302 12.4302L9.216 11.016ZM9.072 11.4H7.072V32.04H9.072H11.072V11.4H9.072ZM9.072 32.04H7.072C7.072 32.6327 7.26035 33.1978 7.616 33.672L9.216 32.472L10.816 31.272C10.89 31.3706 10.9578 31.4928 11.0054 31.6355C11.0529 31.7783 11.072 31.9167 11.072 32.04H9.072ZM9.216 32.472L8.016 34.072C8.49019 34.4276 9.05526 34.616 9.648 34.616V32.616V30.616C9.77127 30.616 9.90972 30.6351 10.0525 30.6826C10.1952 30.7302 10.3174 30.798 10.416 30.872L9.216 32.472ZM42.1991 39H40.1991V41H42.1991V39ZM42.1991 11.16V9.16H40.1991V11.16H42.1991ZM48.4871 11.16H50.4871V9.16H48.4871V11.16ZM48.4871 39V41H50.4871V39H48.4871ZM42.1991 8.376H40.1991V10.376H42.1991V8.376ZM42.1991 2.04V0.0399981H40.1991V2.04H42.1991ZM48.4871 2.04H50.4871V0.0399981H48.4871V2.04ZM48.4871 8.376V10.376H50.4871V8.376H48.4871ZM42.1991 39H44.1991V11.16H42.1991H40.1991V39H42.1991ZM42.1991 11.16V13.16H48.4871V11.16V9.16H42.1991V11.16ZM48.4871 11.16H46.4871V39H48.4871H50.4871V11.16H48.4871ZM48.4871 39V37H42.1991V39V41H48.4871V39ZM42.1991 8.376H44.1991V2.04H42.1991H40.1991V8.376H42.1991ZM42.1991 2.04V4.04H48.4871V2.04V0.0399981H42.1991V2.04ZM48.4871 2.04H46.4871V8.376H48.4871H50.4871V2.04H48.4871ZM48.4871 8.376V6.376H42.1991V8.376V10.376H48.4871V8.376ZM56.9678 49.992H54.9678V51.992H56.9678V49.992ZM56.9678 43.656V41.656H54.9678V43.656H56.9678ZM74.1038 43.464L72.9037 41.864L72.6752 42.0354L72.5038 42.264L74.1038 43.464ZM74.2958 39H76.2958V37H74.2958V39ZM55.6237 38.088L54.5786 39.7932L54.5906 39.8005L54.6027 39.8077L55.6237 38.088ZM53.2238 35.688L54.929 34.6429L53.2238 35.688ZM55.6237 12.072L54.6027 10.3523L54.5906 10.3595L54.5786 10.3668L55.6237 12.072ZM79.6718 14.472L77.9422 15.4763L77.9541 15.4968L77.9665 15.5171L79.6718 14.472ZM79.7197 46.728L81.4493 47.7323L79.7197 46.728ZM77.3197 49.08L76.3392 47.3368L76.3066 47.3552L76.2746 47.3748L77.3197 49.08ZM74.1038 32.568L75.518 33.9822L75.518 33.9822L74.1038 32.568ZM74.1038 17.64L72.5038 18.84L72.6752 19.0686L72.9037 19.24L74.1038 17.64ZM58.7438 17.64L60.158 19.0542L60.158 19.0542L58.7438 17.64ZM58.7438 32.568L57.1437 33.768L57.3152 33.9966L57.5438 34.168L58.7438 32.568ZM56.9678 49.992H58.9678V43.656H56.9678H54.9678V49.992H56.9678ZM56.9678 43.656V45.656H73.7197V43.656V41.656H56.9678V43.656ZM73.7197 43.656V45.656C74.5093 45.656 75.23 45.2956 75.7038 44.664L74.1038 43.464L72.5038 42.264C72.6198 42.1092 72.7963 41.9417 73.0413 41.8191C73.2864 41.6966 73.5263 41.656 73.7197 41.656V43.656ZM74.1038 43.464L75.3038 45.064C75.9354 44.5903 76.2958 43.8695 76.2958 43.08H74.2958H72.2958C72.2958 42.8866 72.3364 42.6466 72.4589 42.4016C72.5814 42.1565 72.749 41.9801 72.9037 41.864L74.1038 43.464ZM74.2958 43.08H76.2958V39H74.2958H72.2958V43.08H74.2958ZM74.2958 39V37H58.9357V39V41H74.2958V39ZM58.9357 39V37C58.1133 37 57.3617 36.7939 56.6448 36.3683L55.6237 38.088L54.6027 39.8077C55.9338 40.598 57.3902 41 58.9357 41V39ZM55.6237 38.088L56.6689 36.3828C55.9459 35.9397 55.3721 35.3659 54.929 34.6429L53.2238 35.688L51.5185 36.7331C52.2914 37.9941 53.3176 39.0203 54.5786 39.7932L55.6237 38.088ZM53.2238 35.688L54.929 34.6429C54.5226 33.9799 54.3117 33.2405 54.3117 32.376H52.3117H50.3117C50.3117 33.9435 50.7089 35.4121 51.5185 36.7331L53.2238 35.688ZM52.3117 32.376H54.3117V17.784H52.3117H50.3117V32.376H52.3117ZM52.3117 17.784H54.3117C54.3117 16.9195 54.5226 16.1801 54.929 15.5171L53.2238 14.472L51.5185 13.4269C50.7089 14.7479 50.3117 16.2165 50.3117 17.784H52.3117ZM53.2238 14.472L54.929 15.5171C55.3721 14.7941 55.9459 14.2203 56.6689 13.7772L55.6237 12.072L54.5786 10.3668C53.3176 11.1397 52.2914 12.1659 51.5185 13.4269L53.2238 14.472ZM55.6237 12.072L56.6448 13.7917C57.3617 13.366 58.1133 13.16 58.9357 13.16V11.16V9.16C57.3902 9.16 55.9338 9.56195 54.6027 10.3523L55.6237 12.072ZM58.9357 11.16V13.16H74.0078V11.16V9.16H58.9357V11.16ZM74.0078 11.16V13.16C74.8723 13.16 75.6117 13.3709 76.2746 13.7772L77.3197 12.072L78.3649 10.3668C77.0438 9.55711 75.5752 9.16 74.0078 9.16V11.16ZM77.3197 12.072L76.2746 13.7772C76.9881 14.2145 77.5352 14.7753 77.9422 15.4763L79.6718 14.472L81.4013 13.4677C80.6563 12.1847 79.6354 11.1455 78.3649 10.3668L77.3197 12.072ZM79.6718 14.472L77.9665 15.5171C78.3729 16.1801 78.5838 16.9195 78.5838 17.784H80.5838H82.5838C82.5838 16.2165 82.1866 14.7479 81.377 13.4269L79.6718 14.472ZM80.5838 17.784H78.5838V43.368H80.5838H82.5838V17.784H80.5838ZM80.5838 43.368H78.5838C78.5838 44.2952 78.3736 45.0633 77.9902 45.7237L79.7197 46.728L81.4493 47.7323C82.2179 46.4087 82.5838 44.9368 82.5838 43.368H80.5838ZM79.7197 46.728L77.9902 45.7237C77.5979 46.3992 77.06 46.9314 76.3392 47.3368L77.3197 49.08L78.3003 50.8232C79.6275 50.0766 80.6896 49.0408 81.4493 47.7323L79.7197 46.728ZM77.3197 49.08L76.2746 47.3748C75.6117 47.7811 74.8723 47.992 74.0078 47.992V49.992V51.992C75.5752 51.992 77.0438 51.5949 78.3649 50.7852L77.3197 49.08ZM74.0078 49.992V47.992H56.9678V49.992V51.992H74.0078V49.992ZM59.1758 32.712V34.712H73.7197V32.712V30.712H59.1758V32.712ZM73.7197 32.712V34.712C74.3083 34.712 74.9805 34.5197 75.518 33.9822L74.1038 32.568L72.6895 31.1538C72.8449 30.9985 73.0321 30.8789 73.2335 30.8033C73.4288 30.7301 73.6 30.712 73.7197 30.712V32.712ZM74.1038 32.568L75.518 33.9822C75.9673 33.5328 76.2958 32.8978 76.2958 32.136H74.2958H72.2958C72.2958 31.9406 72.3367 31.7395 72.4201 31.5517C72.5015 31.3687 72.6055 31.2379 72.6895 31.1538L74.1038 32.568ZM74.2958 32.136H76.2958V18.024H74.2958H72.2958V32.136H74.2958ZM74.2958 18.024H76.2958C76.2958 17.2345 75.9354 16.5137 75.3038 16.04L74.1038 17.64L72.9037 19.24C72.749 19.1239 72.5814 18.9475 72.4589 18.7024C72.3364 18.4574 72.2958 18.2174 72.2958 18.024H74.2958ZM74.1038 17.64L75.7038 16.44C75.23 15.8084 74.5093 15.448 73.7197 15.448V17.448V19.448C73.5263 19.448 73.2864 19.4074 73.0413 19.2849C72.7963 19.1623 72.6198 18.9948 72.5038 18.84L74.1038 17.64ZM73.7197 17.448V15.448H59.1758V17.448V19.448H73.7197V17.448ZM59.1758 17.448V15.448C58.4139 15.448 57.7789 15.7764 57.3295 16.2258L58.7438 17.64L60.158 19.0542C60.0739 19.1383 59.9431 19.2423 59.76 19.3236C59.5723 19.4071 59.3712 19.448 59.1758 19.448V17.448ZM58.7438 17.64L57.3295 16.2258C56.7921 16.7633 56.5998 17.4355 56.5998 18.024H58.5998H60.5998C60.5998 18.1437 60.5816 18.315 60.5084 18.5102C60.4329 18.7117 60.3133 18.8989 60.158 19.0542L58.7438 17.64ZM58.5998 18.024H56.5998V32.136H58.5998H60.5998V18.024H58.5998ZM58.5998 32.136H56.5998C56.5998 32.7287 56.7881 33.2938 57.1437 33.768L58.7438 32.568L60.3438 31.368C60.4177 31.4666 60.4855 31.5888 60.5331 31.7315C60.5807 31.8743 60.5998 32.0127 60.5998 32.136H58.5998ZM58.7438 32.568L57.5438 34.168C58.0179 34.5236 58.583 34.712 59.1758 34.712V32.712V30.712C59.299 30.712 59.4375 30.7311 59.5802 30.7786C59.7229 30.8262 59.8451 30.894 59.9437 30.968L58.7438 32.568ZM85.6054 39H83.6054V41H85.6054V39ZM85.6054 11.16V9.16H83.6054V11.16H85.6054ZM91.8934 11.16H93.8934V9.16H91.8934V11.16ZM91.8934 39V41H93.8934V39H91.8934ZM85.6054 8.376H83.6054V10.376H85.6054V8.376ZM85.6054 2.04V0.0399981H83.6054V2.04H85.6054ZM91.8934 2.04H93.8934V0.0399981H91.8934V2.04ZM91.8934 8.376V10.376H93.8934V8.376H91.8934ZM85.6054 39H87.6054V11.16H85.6054H83.6054V39H85.6054ZM85.6054 11.16V13.16H91.8934V11.16V9.16H85.6054V11.16ZM91.8934 11.16H89.8934V39H91.8934H93.8934V11.16H91.8934ZM91.8934 39V37H85.6054V39V41H91.8934V39ZM85.6054 8.376H87.6054V2.04H85.6054H83.6054V8.376H85.6054ZM85.6054 2.04V4.04H91.8934V2.04V0.0399981H85.6054V2.04ZM91.8934 2.04H89.8934V8.376H91.8934H93.8934V2.04H91.8934ZM91.8934 8.376V6.376H85.6054V8.376V10.376H91.8934V8.376ZM97.8623 35.688L99.5675 34.6429L97.8623 35.688ZM96.9502 2.616V0.615999H94.9502V2.616H96.9502ZM103.238 2.616H105.238V0.615999H103.238V2.616ZM103.238 11.16H101.238V13.16H103.238V11.16ZM114.086 11.16H116.086V9.16H114.086V11.16ZM114.086 17.448V19.448H116.086V17.448H114.086ZM103.238 17.448V15.448H101.238V17.448H103.238ZM103.382 32.568L101.782 33.768L101.954 33.9966L102.182 34.168L103.382 32.568ZM114.086 32.712H116.086V30.712H114.086V32.712ZM114.086 39V41H116.086V39H114.086ZM103.574 39V37C102.71 37 101.97 36.7891 101.307 36.3828L100.262 38.088L99.2171 39.7932C100.538 40.6029 102.007 41 103.574 41V39ZM100.262 38.088L101.307 36.3828C100.584 35.9397 100.011 35.3659 99.5675 34.6429L97.8623 35.688L96.1571 36.7331C96.9299 37.9941 97.9561 39.0203 99.2171 39.7932L100.262 38.088ZM97.8623 35.688L99.5675 34.6429C99.1611 33.9799 98.9502 33.2405 98.9502 32.376H96.9502H94.9502C94.9502 33.9435 95.3474 35.4121 96.1571 36.7331L97.8623 35.688ZM96.9502 32.376H98.9502V2.616H96.9502H94.9502V32.376H96.9502ZM96.9502 2.616V4.616H103.238V2.616V0.615999H96.9502V2.616ZM103.238 2.616H101.238V11.16H103.238H105.238V2.616H103.238ZM103.238 11.16V13.16H114.086V11.16V9.16H103.238V11.16ZM114.086 11.16H112.086V17.448H114.086H116.086V11.16H114.086ZM114.086 17.448V15.448H103.238V17.448V19.448H114.086V17.448ZM103.238 17.448H101.238V32.136H103.238H105.238V17.448H103.238ZM103.238 32.136H101.238C101.238 32.7287 101.427 33.2938 101.782 33.768L103.382 32.568L104.982 31.368C105.056 31.4666 105.124 31.5888 105.172 31.7315C105.219 31.8743 105.238 32.0127 105.238 32.136H103.238ZM103.382 32.568L102.182 34.168C102.656 34.5236 103.222 34.712 103.814 34.712V32.712V30.712C103.938 30.712 104.076 30.7311 104.219 30.7786C104.361 30.8262 104.484 30.894 104.582 30.968L103.382 32.568ZM103.814 32.712V34.712H114.086V32.712V30.712H103.814V32.712ZM114.086 32.712H112.086V39H114.086H116.086V32.712H114.086ZM114.086 39V37H103.574V39V41H114.086V39ZM122.198 38.088L121.152 39.7932L121.164 39.8005L121.176 39.8077L122.198 38.088ZM119.798 35.688L118.068 36.6923L118.08 36.7128L118.092 36.7331L119.798 35.688ZM118.934 21.912V19.912H116.934V21.912H118.934ZM140.917 21.912V23.912H142.917V21.912H140.917ZM140.725 17.64L139.126 18.84L139.297 19.0686L139.526 19.24L140.725 17.64ZM118.934 17.448H116.934V19.448H118.934V17.448ZM118.934 11.16V9.16H116.934V11.16H118.934ZM143.893 12.072L142.848 13.7772L142.86 13.7845L142.872 13.7917L143.893 12.072ZM146.294 14.472L144.564 15.4763L144.576 15.4968L144.588 15.5171L146.294 14.472ZM147.206 39V41H149.206V39H147.206ZM140.917 32.712V34.712H142.917V32.712H140.917ZM140.917 27.576H142.917V25.576H140.917V27.576ZM125.222 27.576V25.576H123.222V27.576H125.222ZM125.366 32.568L123.765 33.768L123.937 33.9966L124.166 34.168L125.366 32.568ZM125.558 39V37C124.693 37 123.927 36.7888 123.219 36.3683L122.198 38.088L121.176 39.8077C122.516 40.6032 123.99 41 125.558 41V39ZM122.198 38.088L123.243 36.3828C122.52 35.9397 121.946 35.3659 121.503 34.6429L119.798 35.688L118.092 36.7331C118.865 37.9941 119.891 39.0203 121.152 39.7932L122.198 38.088ZM119.798 35.688L121.527 34.6837C121.139 34.0153 120.934 33.2612 120.934 32.376H118.934H116.934C116.934 33.9227 117.304 35.3767 118.068 36.6923L119.798 35.688ZM118.934 32.376H120.934V21.912H118.934H116.934V32.376H118.934ZM118.934 21.912V23.912H140.917V21.912V19.912H118.934V21.912ZM140.917 21.912H142.917V18.024H140.917H138.917V21.912H140.917ZM140.917 18.024H142.917C142.917 17.2345 142.557 16.5137 141.925 16.04L140.725 17.64L139.526 19.24C139.371 19.1239 139.203 18.9475 139.081 18.7024C138.958 18.4574 138.917 18.2174 138.917 18.024H140.917ZM140.725 17.64L142.326 16.44C141.852 15.8084 141.131 15.448 140.342 15.448V17.448V19.448C140.148 19.448 139.908 19.4074 139.663 19.2849C139.418 19.1623 139.242 18.9948 139.126 18.84L140.725 17.64ZM140.342 17.448V15.448H118.934V17.448V19.448H140.342V17.448ZM118.934 17.448H120.934V11.16H118.934H116.934V17.448H118.934ZM118.934 11.16V13.16H140.581V11.16V9.16H118.934V11.16ZM140.581 11.16V13.16C141.446 13.16 142.185 13.3709 142.848 13.7772L143.893 12.072L144.939 10.3668C143.618 9.55711 142.149 9.16 140.581 9.16V11.16ZM143.893 12.072L142.872 13.7917C143.615 14.2325 144.166 14.7908 144.564 15.4763L146.294 14.472L148.023 13.4677C147.269 12.1692 146.22 11.1275 144.915 10.3523L143.893 12.072ZM146.294 14.472L144.588 15.5171C144.995 16.1801 145.206 16.9195 145.206 17.784H147.206H149.206C149.206 16.2165 148.808 14.7479 147.999 13.4269L146.294 14.472ZM147.206 17.784H145.206V39H147.206H149.206V17.784H147.206ZM147.206 39V37H125.558V39V41H147.206V39ZM125.798 32.712V34.712H140.917V32.712V30.712H125.798V32.712ZM140.917 32.712H142.917V27.576H140.917H138.917V32.712H140.917ZM140.917 27.576V25.576H125.222V27.576V29.576H140.917V27.576ZM125.222 27.576H123.222V32.136H125.222H127.222V27.576H125.222ZM125.222 32.136H123.222C123.222 32.7287 123.41 33.2938 123.765 33.768L125.366 32.568L126.965 31.368C127.039 31.4666 127.107 31.5888 127.155 31.7315C127.202 31.8743 127.222 32.0127 127.222 32.136H125.222ZM125.366 32.568L124.166 34.168C124.64 34.5236 125.205 34.712 125.798 34.712V32.712V30.712C125.921 30.712 126.059 30.7311 126.202 30.7786C126.345 30.8262 126.467 30.894 126.565 30.968L125.366 32.568ZM152.142 35.688L153.848 34.6429L152.142 35.688ZM151.23 1.992V-0.00800133H149.23V1.992H151.23ZM157.566 1.992H159.566V-0.00800133H157.566V1.992ZM157.71 32.568L156.11 33.768L156.282 33.9966L156.51 34.168L157.71 32.568ZM163.47 32.712H165.47V30.712H163.47V32.712ZM163.47 39V41H165.47V39H163.47ZM157.854 39V37C156.99 37 156.25 36.7891 155.587 36.3828L154.542 38.088L153.497 39.7932C154.818 40.6029 156.287 41 157.854 41V39ZM154.542 38.088L155.587 36.3828C154.865 35.9397 154.291 35.3659 153.848 34.6429L152.142 35.688L150.437 36.7331C151.21 37.9941 152.236 39.0203 153.497 39.7932L154.542 38.088ZM152.142 35.688L153.848 34.6429C153.441 33.9799 153.23 33.2405 153.23 32.376H151.23H149.23C149.23 33.9435 149.627 35.4121 150.437 36.7331L152.142 35.688ZM151.23 32.376H153.23V1.992H151.23H149.23V32.376H151.23ZM151.23 1.992V3.992H157.566V1.992V-0.00800133H151.23V1.992ZM157.566 1.992H155.566V32.136H157.566H159.566V1.992H157.566ZM157.566 32.136H155.566C155.566 32.7287 155.755 33.2938 156.11 33.768L157.71 32.568L159.31 31.368C159.384 31.4666 159.452 31.5888 159.5 31.7315C159.547 31.8743 159.566 32.0127 159.566 32.136H157.566ZM157.71 32.568L156.51 34.168C156.985 34.5236 157.55 34.712 158.142 34.712V32.712V30.712C158.266 30.712 158.404 30.7311 158.547 30.7786C158.69 30.8262 158.812 30.894 158.91 30.968L157.71 32.568ZM158.142 32.712V34.712H163.47V32.712V30.712H158.142V32.712ZM163.47 32.712H161.47V39H163.47H165.47V32.712H163.47ZM163.47 39V37H157.854V39V41H163.47V39ZM170.247 38.088L169.202 39.7932L169.213 39.8005L169.226 39.8077L170.247 38.088ZM167.847 35.688L166.127 36.7091L166.134 36.7212L166.141 36.7331L167.847 35.688ZM166.935 29.688V27.688H164.935V29.688H166.935ZM173.271 29.688H175.271V27.688H173.271V29.688ZM173.415 32.472L171.815 33.672L171.986 33.9006L172.215 34.072L173.415 32.472ZM194.919 32.472L196.333 33.8862L194.919 32.472ZM194.919 25.08L193.504 26.4942L193.605 26.5947L193.719 26.68L194.919 25.08ZM170.247 24.024L169.202 25.7292L169.213 25.7365L169.226 25.7437L170.247 24.024ZM167.847 21.624L166.127 22.6451L166.134 22.6572L166.141 22.6691L167.847 21.624ZM167.847 7.8L169.552 8.84512L169.559 8.83315L169.566 8.82108L167.847 7.8ZM170.247 5.352L169.226 3.63229L169.213 3.63946L169.202 3.6468L170.247 5.352ZM198.135 5.352L197.09 7.0572L197.101 7.06454L197.114 7.07171L198.135 5.352ZM200.583 7.8L198.863 8.82108L198.87 8.83315L198.877 8.84512L200.583 7.8ZM201.495 13.752V15.752H203.495V13.752H201.495ZM195.111 13.752H193.111V15.752H195.111V13.752ZM194.919 11.016L193.319 12.216L193.49 12.4446L193.719 12.616L194.919 11.016ZM173.415 11.016L174.829 12.4302L174.829 12.4302L173.415 11.016ZM173.415 18.36L172 19.7742L172.101 19.8747L172.215 19.96L173.415 18.36ZM198.135 19.416L197.09 21.1212L197.101 21.1285L197.114 21.1357L198.135 19.416ZM200.583 21.864L198.863 22.8851L198.87 22.8972L198.877 22.9091L200.583 21.864ZM200.583 35.688L202.288 36.7331L202.295 36.7212L202.302 36.7091L200.583 35.688ZM198.135 38.088L197.114 36.3683L197.101 36.3755L197.089 36.3828L198.135 38.088ZM173.607 39V37C172.742 37 171.976 36.7888 171.268 36.3683L170.247 38.088L169.226 39.8077C170.565 40.6032 172.039 41 173.607 41V39ZM170.247 38.088L171.292 36.3828C170.569 35.9397 169.995 35.3659 169.552 34.6429L167.847 35.688L166.141 36.7331C166.914 37.9941 167.94 39.0203 169.202 39.7932L170.247 38.088ZM167.847 35.688L169.566 34.6669C169.146 33.9587 168.935 33.1926 168.935 32.328H166.935H164.935C164.935 33.8954 165.331 35.3693 166.127 36.7091L167.847 35.688ZM166.935 32.328H168.935V29.688H166.935H164.935V32.328H166.935ZM166.935 29.688V31.688H173.271V29.688V27.688H166.935V29.688ZM173.271 29.688H171.271V32.04H173.271H175.271V29.688H173.271ZM173.271 32.04H171.271C171.271 32.6327 171.459 33.1978 171.815 33.672L173.415 32.472L175.015 31.272C175.089 31.3706 175.156 31.4928 175.204 31.6355C175.252 31.7783 175.271 31.9167 175.271 32.04H173.271ZM173.415 32.472L172.215 34.072C172.689 34.4276 173.254 34.616 173.847 34.616V32.616V30.616C173.97 30.616 174.108 30.6351 174.251 30.6826C174.394 30.7302 174.516 30.798 174.615 30.872L173.415 32.472ZM173.847 32.616V34.616H194.535V32.616V30.616H173.847V32.616ZM194.535 32.616V34.616C195.123 34.616 195.795 34.4237 196.333 33.8862L194.919 32.472L193.504 31.0578C193.66 30.9025 193.847 30.7829 194.048 30.7073C194.244 30.6341 194.415 30.616 194.535 30.616V32.616ZM194.919 32.472L196.333 33.8862C196.782 33.4368 197.111 32.8018 197.111 32.04H195.111H193.111C193.111 31.8446 193.152 31.6435 193.235 31.4557C193.316 31.2727 193.42 31.1419 193.504 31.0578L194.919 32.472ZM195.111 32.04H197.111V25.464H195.111H193.111V32.04H195.111ZM195.111 25.464H197.111C197.111 24.6745 196.75 23.9537 196.119 23.48L194.919 25.08L193.719 26.68C193.564 26.5639 193.396 26.3875 193.274 26.1424C193.151 25.8974 193.111 25.6574 193.111 25.464H195.111ZM194.919 25.08L196.333 23.6658C195.795 23.1283 195.123 22.936 194.535 22.936V24.936V26.936C194.415 26.936 194.244 26.9179 194.048 26.8447C193.847 26.7691 193.66 26.6495 193.504 26.4942L194.919 25.08ZM194.535 24.936V22.936H173.607V24.936V26.936H194.535V24.936ZM173.607 24.936V22.936C172.742 22.936 171.976 22.7248 171.268 22.3043L170.247 24.024L169.226 25.7437C170.565 26.5392 172.039 26.936 173.607 26.936V24.936ZM170.247 24.024L171.292 22.3188C170.569 21.8757 169.995 21.3019 169.552 20.5789L167.847 21.624L166.141 22.6691C166.914 23.9301 167.94 24.9563 169.202 25.7292L170.247 24.024ZM167.847 21.624L169.566 20.6029C169.151 19.903 168.935 19.1226 168.935 18.216H166.935H164.935C164.935 19.8054 165.326 21.297 166.127 22.6451L167.847 21.624ZM166.935 18.216H168.935V11.112H166.935H164.935V18.216H166.935ZM166.935 11.112H168.935C168.935 10.2475 169.146 9.50806 169.552 8.84512L167.847 7.8L166.141 6.75487C165.332 8.07594 164.935 9.54454 164.935 11.112H166.935ZM167.847 7.8L169.566 8.82108C170.012 8.0697 170.584 7.49125 171.292 7.0572L170.247 5.352L169.202 3.6468C167.926 4.42875 166.897 5.4823 166.127 6.77892L167.847 7.8ZM170.247 5.352L171.268 7.07171C171.976 6.6512 172.742 6.44 173.607 6.44V4.44V2.44C172.039 2.44 170.565 2.8368 169.226 3.63229L170.247 5.352ZM173.607 4.44V6.44H194.823V4.44V2.44H173.607V4.44ZM194.823 4.44V6.44C195.687 6.44 196.427 6.65088 197.09 7.0572L198.135 5.352L199.18 3.6468C197.859 2.83711 196.39 2.44 194.823 2.44V4.44ZM198.135 5.352L197.114 7.07171C197.85 7.50892 198.426 8.08471 198.863 8.82108L200.583 7.8L202.302 6.77892C201.524 5.46728 200.467 4.41107 199.156 3.63229L198.135 5.352ZM200.583 7.8L198.877 8.84512C199.284 9.50806 199.495 10.2475 199.495 11.112H201.495H203.495C203.495 9.54454 203.098 8.07593 202.288 6.75487L200.583 7.8ZM201.495 11.112H199.495V13.752H201.495H203.495V11.112H201.495ZM201.495 13.752V11.752H195.111V13.752V15.752H201.495V13.752ZM195.111 13.752H197.111V11.4H195.111H193.111V13.752H195.111ZM195.111 11.4H197.111C197.111 10.6105 196.75 9.8897 196.119 9.41599L194.919 11.016L193.719 12.616C193.564 12.4999 193.396 12.3235 193.274 12.0784C193.151 11.8334 193.111 11.5934 193.111 11.4H195.111ZM194.919 11.016L196.519 9.816C196.045 9.18439 195.324 8.824 194.535 8.824V10.824V12.824C194.341 12.824 194.101 12.7834 193.856 12.6609C193.611 12.5383 193.435 12.3708 193.319 12.216L194.919 11.016ZM194.535 10.824V8.824H173.847V10.824V12.824H194.535V10.824ZM173.847 10.824V8.824C173.085 8.824 172.45 9.15241 172 9.60179L173.415 11.016L174.829 12.4302C174.745 12.5143 174.614 12.6183 174.431 12.6996C174.243 12.7831 174.042 12.824 173.847 12.824V10.824ZM173.415 11.016L172 9.60178C171.463 10.1392 171.271 10.8115 171.271 11.4H173.271H175.271C175.271 11.5197 175.253 11.691 175.179 11.8862C175.104 12.0877 174.984 12.2749 174.829 12.4302L173.415 11.016ZM173.271 11.4H171.271V17.976H173.271H175.271V11.4H173.271ZM173.271 17.976H171.271C171.271 18.5645 171.463 19.2367 172 19.7742L173.415 18.36L174.829 16.9458C174.984 17.1011 175.104 17.2883 175.179 17.4898C175.253 17.685 175.271 17.8563 175.271 17.976H173.271ZM173.415 18.36L172.215 19.96C172.689 20.3156 173.254 20.504 173.847 20.504V18.504V16.504C173.97 16.504 174.108 16.5231 174.251 16.5706C174.394 16.6182 174.516 16.686 174.615 16.76L173.415 18.36ZM173.847 18.504V20.504H194.823V18.504V16.504H173.847V18.504ZM194.823 18.504V20.504C195.687 20.504 196.427 20.7149 197.09 21.1212L198.135 19.416L199.18 17.7108C197.859 16.9011 196.39 16.504 194.823 16.504V18.504ZM198.135 19.416L197.114 21.1357C197.85 21.5729 198.426 22.1487 198.863 22.8851L200.583 21.864L202.302 20.8429C201.524 19.5313 200.467 18.4751 199.156 17.6963L198.135 19.416ZM200.583 21.864L198.877 22.9091C199.279 23.5637 199.495 24.317 199.495 25.224H201.495H203.495C203.495 23.635 203.103 22.1483 202.288 20.8189L200.583 21.864ZM201.495 25.224H199.495V32.328H201.495H203.495V25.224H201.495ZM201.495 32.328H199.495C199.495 33.1926 199.283 33.9587 198.863 34.6669L200.583 35.688L202.302 36.7091C203.098 35.3693 203.495 33.8954 203.495 32.328H201.495ZM200.583 35.688L198.877 34.6429C198.443 35.3511 197.865 35.9222 197.114 36.3683L198.135 38.088L199.156 39.8077C200.452 39.0378 201.506 38.0089 202.288 36.7331L200.583 35.688ZM198.135 38.088L197.089 36.3828C196.427 36.7891 195.687 37 194.823 37V39V41C196.39 41 197.859 40.6029 199.18 39.7932L198.135 38.088ZM194.823 39V37H173.607V39V41H194.823V39ZM207.503 35.688L209.208 34.6429L207.503 35.688ZM206.591 2.616V0.615999H204.591V2.616H206.591ZM212.879 2.616H214.879V0.615999H212.879V2.616ZM212.879 11.16H210.879V13.16H212.879V11.16ZM223.727 11.16H225.727V9.16H223.727V11.16ZM223.727 17.448V19.448H225.727V17.448H223.727ZM212.879 17.448V15.448H210.879V17.448H212.879ZM213.023 32.568L211.423 33.768L211.594 33.9966L211.823 34.168L213.023 32.568ZM223.727 32.712H225.727V30.712H223.727V32.712ZM223.727 39V41H225.727V39H223.727ZM213.215 39V37C212.35 37 211.611 36.7891 210.948 36.3828L209.903 38.088L208.858 39.7932C210.179 40.6029 211.647 41 213.215 41V39ZM209.903 38.088L210.948 36.3828C210.225 35.9397 209.651 35.3659 209.208 34.6429L207.503 35.688L205.798 36.7331C206.571 37.9941 207.597 39.0203 208.858 39.7932L209.903 38.088ZM207.503 35.688L209.208 34.6429C208.802 33.9799 208.591 33.2405 208.591 32.376H206.591H204.591C204.591 33.9435 204.988 35.4121 205.798 36.7331L207.503 35.688ZM206.591 32.376H208.591V2.616H206.591H204.591V32.376H206.591ZM206.591 2.616V4.616H212.879V2.616V0.615999H206.591V2.616ZM212.879 2.616H210.879V11.16H212.879H214.879V2.616H212.879ZM212.879 11.16V13.16H223.727V11.16V9.16H212.879V11.16ZM223.727 11.16H221.727V17.448H223.727H225.727V11.16H223.727ZM223.727 17.448V15.448H212.879V17.448V19.448H223.727V17.448ZM212.879 17.448H210.879V32.136H212.879H214.879V17.448H212.879ZM212.879 32.136H210.879C210.879 32.7287 211.067 33.2938 211.423 33.768L213.023 32.568L214.623 31.368C214.697 31.4666 214.765 31.5888 214.812 31.7315C214.86 31.8743 214.879 32.0127 214.879 32.136H212.879ZM213.023 32.568L211.823 34.168C212.297 34.5236 212.862 34.712 213.455 34.712V32.712V30.712C213.578 30.712 213.717 30.7311 213.859 30.7786C214.002 30.8262 214.124 30.894 214.223 30.968L213.023 32.568ZM213.455 32.712V34.712H223.727V32.712V30.712H213.455V32.712ZM223.727 32.712H221.727V39H223.727H225.727V32.712H223.727ZM223.727 39V37H213.215V39V41H223.727V39ZM227.918 39H225.918V41H227.918V39ZM231.23 12.072L230.209 10.3523L230.197 10.3595L230.185 10.3668L231.23 12.072ZM249.998 11.16H251.998V9.16H249.998V11.16ZM249.998 17.448V19.448H251.998V17.448H249.998ZM234.206 39V41H236.206V39H234.206ZM227.918 39H229.918V17.784H227.918H225.918V39H227.918ZM227.918 17.784H229.918C229.918 16.9195 230.129 16.1801 230.535 15.5171L228.83 14.472L227.125 13.4269C226.315 14.7479 225.918 16.2165 225.918 17.784H227.918ZM228.83 14.472L230.535 15.5171C230.978 14.7941 231.552 14.2203 232.275 13.7772L231.23 12.072L230.185 10.3668C228.924 11.1397 227.898 12.1659 227.125 13.4269L228.83 14.472ZM231.23 12.072L232.251 13.7917C232.968 13.366 233.719 13.16 234.542 13.16V11.16V9.16C232.996 9.16 231.54 9.56195 230.209 10.3523L231.23 12.072ZM234.542 11.16V13.16H249.998V11.16V9.16H234.542V11.16ZM249.998 11.16H247.998V17.448H249.998H251.998V11.16H249.998ZM249.998 17.448V15.448H234.782V17.448V19.448H249.998V17.448ZM234.782 17.448V15.448C234.02 15.448 233.385 15.7764 232.936 16.2258L234.35 17.64L235.764 19.0542C235.68 19.1383 235.549 19.2423 235.366 19.3236C235.178 19.4071 234.977 19.448 234.782 19.448V17.448ZM234.35 17.64L232.936 16.2258C232.398 16.7633 232.206 17.4355 232.206 18.024H234.206H236.206C236.206 18.1437 236.188 18.315 236.115 18.5102C236.039 18.7117 235.919 18.8989 235.764 19.0542L234.35 17.64ZM234.206 18.024H232.206V39H234.206H236.206V18.024H234.206ZM234.206 39V37H227.918V39V41H234.206V39ZM254.188 35.688L255.893 34.6429L254.188 35.688ZM254.188 14.472L252.483 13.4269L254.188 14.472ZM278.236 12.072L277.191 13.7772L277.203 13.7845L277.215 13.7917L278.236 12.072ZM280.636 14.472L278.907 15.4763L278.918 15.4968L278.931 15.5171L280.636 14.472ZM281.548 28.248V30.248H283.548V28.248H281.548ZM259.564 28.248V26.248H257.564V28.248H259.564ZM259.708 32.568L258.108 33.768L258.28 33.9966L258.508 34.168L259.708 32.568ZM281.548 32.712H283.548V30.712H281.548V32.712ZM281.548 39V41H283.548V39H281.548ZM259.564 22.584H257.564V24.584H259.564V22.584ZM275.26 22.584V24.584H277.26V22.584H275.26ZM275.068 17.64L273.468 18.84L273.64 19.0686L273.868 19.24L275.068 17.64ZM259.9 39V37C259.036 37 258.296 36.7891 257.633 36.3828L256.588 38.088L255.543 39.7932C256.864 40.6029 258.333 41 259.9 41V39ZM256.588 38.088L257.633 36.3828C256.91 35.9397 256.336 35.3659 255.893 34.6429L254.188 35.688L252.483 36.7331C253.256 37.9941 254.282 39.0203 255.543 39.7932L256.588 38.088ZM254.188 35.688L255.893 34.6429C255.487 33.9799 255.276 33.2405 255.276 32.376H253.276H251.276C251.276 33.9435 251.673 35.4121 252.483 36.7331L254.188 35.688ZM253.276 32.376H255.276V17.784H253.276H251.276V32.376H253.276ZM253.276 17.784H255.276C255.276 16.9195 255.487 16.1801 255.893 15.5171L254.188 14.472L252.483 13.4269C251.673 14.7479 251.276 16.2165 251.276 17.784H253.276ZM254.188 14.472L255.893 15.5171C256.336 14.7941 256.91 14.2203 257.633 13.7772L256.588 12.072L255.543 10.3668C254.282 11.1397 253.256 12.1659 252.483 13.4269L254.188 14.472ZM256.588 12.072L257.633 13.7772C258.296 13.3709 259.036 13.16 259.9 13.16V11.16V9.16C258.333 9.16 256.864 9.55711 255.543 10.3668L256.588 12.072ZM259.9 11.16V13.16H274.924V11.16V9.16H259.9V11.16ZM274.924 11.16V13.16C275.789 13.16 276.528 13.3709 277.191 13.7772L278.236 12.072L279.281 10.3668C277.96 9.55711 276.492 9.16 274.924 9.16V11.16ZM278.236 12.072L277.215 13.7917C277.957 14.2325 278.509 14.7908 278.907 15.4763L280.636 14.472L282.366 13.4677C281.612 12.1692 280.563 11.1275 279.257 10.3523L278.236 12.072ZM280.636 14.472L278.931 15.5171C279.337 16.1801 279.548 16.9195 279.548 17.784H281.548H283.548C283.548 16.2165 283.151 14.7479 282.341 13.4269L280.636 14.472ZM281.548 17.784H279.548V28.248H281.548H283.548V17.784H281.548ZM281.548 28.248V26.248H259.564V28.248V30.248H281.548V28.248ZM259.564 28.248H257.564V32.136H259.564H261.564V28.248H259.564ZM259.564 32.136H257.564C257.564 32.7287 257.752 33.2938 258.108 33.768L259.708 32.568L261.308 31.368C261.382 31.4666 261.45 31.5888 261.497 31.7315C261.545 31.8743 261.564 32.0127 261.564 32.136H259.564ZM259.708 32.568L258.508 34.168C258.982 34.5236 259.547 34.712 260.14 34.712V32.712V30.712C260.263 30.712 260.402 30.7311 260.545 30.7786C260.687 30.8262 260.81 30.894 260.908 30.968L259.708 32.568ZM260.14 32.712V34.712H281.548V32.712V30.712H260.14V32.712ZM281.548 32.712H279.548V39H281.548H283.548V32.712H281.548ZM281.548 39V37H259.9V39V41H281.548V39ZM259.564 22.584V24.584H275.26V22.584V20.584H259.564V22.584ZM275.26 22.584H277.26V18.024H275.26H273.26V22.584H275.26ZM275.26 18.024H277.26C277.26 17.2345 276.9 16.5137 276.268 16.04L275.068 17.64L273.868 19.24C273.713 19.1239 273.546 18.9475 273.423 18.7024C273.301 18.4574 273.26 18.2174 273.26 18.024H275.26ZM275.068 17.64L276.668 16.44C276.194 15.8084 275.474 15.448 274.684 15.448V17.448V19.448C274.491 19.448 274.251 19.4074 274.006 19.2849C273.761 19.1623 273.584 18.9947 273.468 18.84L275.068 17.64ZM274.684 17.448V15.448H260.14V17.448V19.448H274.684V17.448ZM260.14 17.448V15.448C259.378 15.448 258.743 15.7764 258.294 16.2258L259.708 17.64L261.122 19.0542C261.038 19.1383 260.907 19.2423 260.724 19.3236C260.537 19.4071 260.336 19.448 260.14 19.448V17.448ZM259.708 17.64L258.294 16.2258C257.756 16.7633 257.564 17.4355 257.564 18.024H259.564H261.564C261.564 18.1437 261.546 18.315 261.473 18.5102C261.397 18.7117 261.278 18.8989 261.122 19.0542L259.708 17.64ZM259.564 18.024H257.564V22.584H259.564H261.564V18.024H259.564ZM289.823 38.088L288.777 39.7932L288.789 39.8005L288.801 39.8077L289.823 38.088ZM287.422 35.688L285.693 36.6923L285.705 36.7128L285.717 36.7331L287.422 35.688ZM286.559 21.912V19.912H284.559V21.912H286.559ZM308.543 21.912V23.912H310.543V21.912H308.543ZM308.35 17.64L306.751 18.84L306.922 19.0686L307.151 19.24L308.35 17.64ZM286.559 17.448H284.559V19.448H286.559V17.448ZM286.559 11.16V9.16H284.559V11.16H286.559ZM311.518 12.072L310.473 13.7772L310.485 13.7845L310.497 13.7917L311.518 12.072ZM313.918 14.472L312.189 15.4763L312.201 15.4968L312.213 15.5171L313.918 14.472ZM314.831 39V41H316.831V39H314.831ZM308.543 32.712V34.712H310.543V32.712H308.543ZM308.543 27.576H310.543V25.576H308.543V27.576ZM292.846 27.576V25.576H290.846V27.576H292.846ZM292.991 32.568L291.391 33.768L291.562 33.9966L291.79 34.168L292.991 32.568ZM293.182 39V37C292.318 37 291.552 36.7888 290.844 36.3683L289.823 38.088L288.801 39.8077C290.141 40.6032 291.615 41 293.182 41V39ZM289.823 38.088L290.868 36.3828C290.145 35.9397 289.571 35.3659 289.128 34.6429L287.422 35.688L285.717 36.7331C286.49 37.9941 287.516 39.0203 288.777 39.7932L289.823 38.088ZM287.422 35.688L289.152 34.6837C288.764 34.0153 288.559 33.2612 288.559 32.376H286.559H284.559C284.559 33.9227 284.929 35.3767 285.693 36.6923L287.422 35.688ZM286.559 32.376H288.559V21.912H286.559H284.559V32.376H286.559ZM286.559 21.912V23.912H308.543V21.912V19.912H286.559V21.912ZM308.543 21.912H310.543V18.024H308.543H306.543V21.912H308.543ZM308.543 18.024H310.543C310.543 17.2345 310.182 16.5137 309.551 16.04L308.35 17.64L307.151 19.24C306.996 19.1239 306.828 18.9475 306.706 18.7024C306.583 18.4574 306.543 18.2174 306.543 18.024H308.543ZM308.35 17.64L309.951 16.44C309.477 15.8084 308.756 15.448 307.966 15.448V17.448V19.448C307.773 19.448 307.533 19.4074 307.288 19.2849C307.043 19.1623 306.867 18.9948 306.751 18.84L308.35 17.64ZM307.966 17.448V15.448H286.559V17.448V19.448H307.966V17.448ZM286.559 17.448H288.559V11.16H286.559H284.559V17.448H286.559ZM286.559 11.16V13.16H308.207V11.16V9.16H286.559V11.16ZM308.207 11.16V13.16C309.071 13.16 309.81 13.3709 310.473 13.7772L311.518 12.072L312.564 10.3668C311.243 9.55711 309.774 9.16 308.207 9.16V11.16ZM311.518 12.072L310.497 13.7917C311.24 14.2325 311.791 14.7908 312.189 15.4763L313.918 14.472L315.648 13.4677C314.894 12.1692 313.845 11.1275 312.54 10.3523L311.518 12.072ZM313.918 14.472L312.213 15.5171C312.62 16.1801 312.831 16.9195 312.831 17.784H314.831H316.831C316.831 16.2165 316.433 14.7479 315.624 13.4269L313.918 14.472ZM314.831 17.784H312.831V39H314.831H316.831V17.784H314.831ZM314.831 39V37H293.182V39V41H314.831V39ZM293.422 32.712V34.712H308.543V32.712V30.712H293.422V32.712ZM308.543 32.712H310.543V27.576H308.543H306.543V32.712H308.543ZM308.543 27.576V25.576H292.846V27.576V29.576H308.543V27.576ZM292.846 27.576H290.846V32.136H292.846H294.846V27.576H292.846ZM292.846 32.136H290.846C290.846 32.7287 291.035 33.2938 291.391 33.768L292.991 32.568L294.591 31.368C294.664 31.4666 294.732 31.5888 294.78 31.7315C294.827 31.8743 294.846 32.0127 294.846 32.136H292.846ZM292.991 32.568L291.79 34.168C292.265 34.5236 292.83 34.712 293.422 34.712V32.712V30.712C293.546 30.712 293.684 30.7311 293.827 30.7786C293.97 30.8262 294.092 30.894 294.19 30.968L292.991 32.568ZM318.764 39H316.764V41H318.764V39ZM318.764 11.16V9.16H316.764V11.16H318.764ZM356.636 12.072L357.681 10.3668V10.3668L356.636 12.072ZM358.988 14.472L357.258 15.4763L357.27 15.4968L357.283 15.5171L358.988 14.472ZM359.9 39V41H361.9V39H359.9ZM353.66 39H351.66V41H353.66V39ZM353.468 17.64L352.054 19.0542L352.154 19.1547L352.268 19.24L353.468 17.64ZM342.668 17.64L344.082 19.0542V19.0542L342.668 17.64ZM342.524 39V41H344.524V39H342.524ZM336.188 39H334.188V41H336.188V39ZM335.996 17.64L334.396 18.84L334.567 19.0686L334.796 19.24L335.996 17.64ZM325.196 17.64L326.61 19.0542V19.0542L325.196 17.64ZM325.052 39V41H327.052V39H325.052ZM318.764 39H320.764V11.16H318.764H316.764V39H318.764ZM318.764 11.16V13.16H353.276V11.16V9.16H318.764V11.16ZM353.276 11.16V13.16C354.183 13.16 354.936 13.376 355.591 13.7772L356.636 12.072L357.681 10.3668C356.352 9.55197 354.865 9.16 353.276 9.16V11.16ZM356.636 12.072L355.591 13.7772C356.304 14.2145 356.851 14.7753 357.258 15.4763L358.988 14.472L360.717 13.4677C359.972 12.1847 358.952 11.1455 357.681 10.3668L356.636 12.072ZM358.988 14.472L357.283 15.5171C357.689 16.1801 357.9 16.9195 357.9 17.784H359.9H361.9C361.9 16.2165 361.503 14.7479 360.693 13.4269L358.988 14.472ZM359.9 17.784H357.9V39H359.9H361.9V17.784H359.9ZM359.9 39V37H353.66V39V41H359.9V39ZM353.66 39H355.66V18.024H353.66H351.66V39H353.66ZM353.66 18.024H355.66C355.66 17.2345 355.299 16.5137 354.668 16.04L353.468 17.64L352.268 19.24C352.113 19.1239 351.946 18.9475 351.823 18.7024C351.701 18.4574 351.66 18.2174 351.66 18.024H353.66ZM353.468 17.64L354.882 16.2258C354.433 15.7764 353.798 15.448 353.036 15.448V17.448V19.448C352.84 19.448 352.639 19.4071 352.452 19.3236C352.269 19.2423 352.138 19.1383 352.054 19.0542L353.468 17.64ZM353.036 17.448V15.448H343.1V17.448V19.448H353.036V17.448ZM343.1 17.448V15.448C342.338 15.448 341.703 15.7764 341.254 16.2258L342.668 17.64L344.082 19.0542C343.998 19.1383 343.867 19.2423 343.684 19.3236C343.496 19.4071 343.295 19.448 343.1 19.448V17.448ZM342.668 17.64L341.254 16.2258C340.716 16.7633 340.524 17.4355 340.524 18.024H342.524H344.524C344.524 18.1437 344.506 18.315 344.433 18.5102C344.357 18.7117 344.237 18.8989 344.082 19.0542L342.668 17.64ZM342.524 18.024H340.524V39H342.524H344.524V18.024H342.524ZM342.524 39V37H336.188V39V41H342.524V39ZM336.188 39H338.188V18.024H336.188H334.188V39H336.188ZM336.188 18.024H338.188C338.188 17.2345 337.827 16.5137 337.196 16.04L335.996 17.64L334.796 19.24C334.641 19.1239 334.474 18.9475 334.351 18.7024C334.228 18.4574 334.188 18.2174 334.188 18.024H336.188ZM335.996 17.64L337.596 16.44C337.122 15.8084 336.401 15.448 335.612 15.448V17.448V19.448C335.418 19.448 335.178 19.4074 334.933 19.2849C334.688 19.1623 334.512 18.9947 334.396 18.84L335.996 17.64ZM335.612 17.448V15.448H325.628V17.448V19.448H335.612V17.448ZM325.628 17.448V15.448C324.866 15.448 324.231 15.7764 323.782 16.2258L325.196 17.64L326.61 19.0542C326.526 19.1383 326.395 19.2423 326.212 19.3236C326.024 19.4071 325.823 19.448 325.628 19.448V17.448ZM325.196 17.64L323.782 16.2258C323.244 16.7633 323.052 17.4355 323.052 18.024H325.052H327.052C327.052 18.1437 327.034 18.315 326.961 18.5102C326.885 18.7117 326.765 18.8989 326.61 19.0542L325.196 17.64ZM325.052 18.024H323.052V39H325.052H327.052V18.024H325.052ZM325.052 39V37H318.764V39V41H325.052V39Z" fill="white" mask="url(#path-1-outside-1_39_67)"/>
<defs>
<linearGradient id="paint0_linear_39_67" x1="184" y1="4.5" x2="183" y2="40" gradientUnits="userSpaceOnUse">
<stop stop-color="#031E51"/>
<stop offset="1" stop-color="#1A36C5"/>
</linearGradient>
</defs>
</svg>
