<svg width="170" height="72" viewBox="0 0 170 72" fill="none" xmlns="http://www.w3.org/2000/svg">
<mask id="path-1-outside-1_39_66" maskUnits="userSpaceOnUse" x="0" y="0" width="170" height="72" fill="black">
<rect fill="white" width="170" height="72"/>
<path d="M81.264 36.4C81.264 41.072 80.528 45.456 79.056 49.552C77.584 53.584 75.472 57.136 72.72 60.208C70.032 63.28 66.768 65.68 62.928 67.408C59.152 69.136 54.96 70 50.352 70H16.464V60.4H50.352C54.768 60.4 58.576 59.312 61.776 57.136C64.976 54.96 67.408 52.08 69.072 48.496C70.8 44.848 71.664 40.816 71.664 36.4C71.664 31.984 70.8 27.952 69.072 24.304C67.408 20.656 64.976 17.776 61.776 15.664C58.576 13.488 54.768 12.4 50.352 12.4H11.664V70H2.064V2.8H50.352C54.96 2.8 59.152 3.664 62.928 5.392C66.768 7.12 70.032 9.552 72.72 12.688C75.472 15.76 77.584 19.344 79.056 23.44C80.528 27.472 81.264 31.792 81.264 36.4ZM167.772 50.8C167.772 54.32 166.908 57.552 165.18 60.496C163.452 63.376 161.148 65.68 158.268 67.408C155.388 69.136 152.156 70 148.572 70H90.204V60.4H148.572C151.26 60.4 153.532 59.472 155.388 57.616C157.244 55.696 158.172 53.424 158.172 50.8C158.172 48.176 157.244 45.936 155.388 44.08C153.532 42.16 151.26 41.2 148.572 41.2H109.404C105.884 41.2 102.652 40.336 99.708 38.608C96.828 36.88 94.524 34.576 92.796 31.696C91.068 28.752 90.204 25.52 90.204 22C90.204 18.48 91.068 15.28 92.796 12.4C94.524 9.456 96.828 7.12 99.708 5.392C102.652 3.664 105.884 2.8 109.404 2.8H162.972V12.4H109.404C106.78 12.4 104.508 13.36 102.588 15.28C100.732 17.136 99.804 19.376 99.804 22C99.804 24.624 100.732 26.896 102.588 28.816C104.508 30.672 106.78 31.6 109.404 31.6H148.572C152.156 31.6 155.388 32.464 158.268 34.192C161.148 35.92 163.452 38.256 165.18 41.2C166.908 44.08 167.772 47.28 167.772 50.8Z"/>
</mask>
<path d="M81.264 36.4C81.264 41.072 80.528 45.456 79.056 49.552C77.584 53.584 75.472 57.136 72.72 60.208C70.032 63.28 66.768 65.68 62.928 67.408C59.152 69.136 54.96 70 50.352 70H16.464V60.4H50.352C54.768 60.4 58.576 59.312 61.776 57.136C64.976 54.96 67.408 52.08 69.072 48.496C70.8 44.848 71.664 40.816 71.664 36.4C71.664 31.984 70.8 27.952 69.072 24.304C67.408 20.656 64.976 17.776 61.776 15.664C58.576 13.488 54.768 12.4 50.352 12.4H11.664V70H2.064V2.8H50.352C54.96 2.8 59.152 3.664 62.928 5.392C66.768 7.12 70.032 9.552 72.72 12.688C75.472 15.76 77.584 19.344 79.056 23.44C80.528 27.472 81.264 31.792 81.264 36.4ZM167.772 50.8C167.772 54.32 166.908 57.552 165.18 60.496C163.452 63.376 161.148 65.68 158.268 67.408C155.388 69.136 152.156 70 148.572 70H90.204V60.4H148.572C151.26 60.4 153.532 59.472 155.388 57.616C157.244 55.696 158.172 53.424 158.172 50.8C158.172 48.176 157.244 45.936 155.388 44.08C153.532 42.16 151.26 41.2 148.572 41.2H109.404C105.884 41.2 102.652 40.336 99.708 38.608C96.828 36.88 94.524 34.576 92.796 31.696C91.068 28.752 90.204 25.52 90.204 22C90.204 18.48 91.068 15.28 92.796 12.4C94.524 9.456 96.828 7.12 99.708 5.392C102.652 3.664 105.884 2.8 109.404 2.8H162.972V12.4H109.404C106.78 12.4 104.508 13.36 102.588 15.28C100.732 17.136 99.804 19.376 99.804 22C99.804 24.624 100.732 26.896 102.588 28.816C104.508 30.672 106.78 31.6 109.404 31.6H148.572C152.156 31.6 155.388 32.464 158.268 34.192C161.148 35.92 163.452 38.256 165.18 41.2C166.908 44.08 167.772 47.28 167.772 50.8Z" fill="url(#paint0_linear_39_66)"/>
<path d="M79.056 49.552L80.9347 50.2379L80.9382 50.2284L79.056 49.552ZM72.72 60.208L71.2303 58.8735L71.2225 58.8822L71.2149 58.891L72.72 60.208ZM62.928 67.408L62.1073 65.5841L62.0958 65.5894L62.928 67.408ZM16.464 70H14.464V72H16.464V70ZM16.464 60.4V58.4H14.464V60.4H16.464ZM61.776 57.136L62.9006 58.7899L61.776 57.136ZM69.072 48.496L67.2645 47.6398L67.2612 47.6468L67.258 47.6538L69.072 48.496ZM69.072 24.304L67.2524 25.134L67.2584 25.1471L67.2645 25.1602L69.072 24.304ZM61.776 15.664L60.6514 17.3178L60.6628 17.3256L60.6743 17.3332L61.776 15.664ZM11.664 12.4V10.4H9.664V12.4H11.664ZM11.664 70V72H13.664V70H11.664ZM2.064 70H0.0640006V72H2.064V70ZM2.064 2.8V0.799995H0.0640006V2.8H2.064ZM62.928 5.392L62.0957 7.21065L62.1073 7.21584L62.928 5.392ZM72.72 12.688L71.2015 13.9896L71.2157 14.0062L71.2303 14.0225L72.72 12.688ZM79.056 23.44L77.1738 24.1164L77.1773 24.1259L79.056 23.44ZM81.264 36.4H79.264C79.264 40.8584 78.5623 45.012 77.1739 48.8756L79.056 49.552L80.9382 50.2284C82.4937 45.9 83.264 41.2856 83.264 36.4H81.264ZM79.056 49.552L77.1773 48.8661C75.7889 52.669 73.8057 55.9987 71.2303 58.8735L72.72 60.208L74.2097 61.5425C77.1383 58.2733 79.3791 54.499 80.9347 50.2379L79.056 49.552ZM72.72 60.208L71.2149 58.891C68.722 61.74 65.6939 63.9702 62.1073 65.5842L62.928 67.408L63.7487 69.2318C67.8421 67.3898 71.342 64.82 74.2252 61.525L72.72 60.208ZM62.928 67.408L62.0958 65.5894C58.6083 67.1853 54.7045 68 50.352 68V70V72C55.2155 72 59.6957 71.0867 63.7603 69.2266L62.928 67.408ZM50.352 70V68H16.464V70V72H50.352V70ZM16.464 70H18.464V60.4H16.464H14.464V70H16.464ZM16.464 60.4V62.4H50.352V60.4V58.4H16.464V60.4ZM50.352 60.4V62.4C55.1106 62.4 59.3237 61.2222 62.9006 58.7899L61.776 57.136L60.6514 55.4821C57.8283 57.4018 54.4254 58.4 50.352 58.4V60.4ZM61.776 57.136L62.9006 58.7899C66.4061 56.4061 69.0732 53.2428 70.886 49.3382L69.072 48.496L67.258 47.6538C65.7428 50.9172 63.5459 53.5139 60.6514 55.4821L61.776 57.136ZM69.072 48.496L70.8795 49.3522C72.7458 45.4122 73.664 41.0839 73.664 36.4H71.664H69.664C69.664 40.5481 68.8542 44.2838 67.2645 47.6398L69.072 48.496ZM71.664 36.4H73.664C73.664 31.7161 72.7458 27.3878 70.8795 23.4478L69.072 24.304L67.2645 25.1602C68.8542 28.5162 69.664 32.2519 69.664 36.4H71.664ZM69.072 24.304L70.8916 23.474C69.0793 19.5008 66.4057 16.3233 62.8777 13.9948L61.776 15.664L60.6743 17.3332C63.5463 19.2287 65.7367 21.8112 67.2524 25.134L69.072 24.304ZM61.776 15.664L62.9006 14.0101C59.3237 11.5778 55.1106 10.4 50.352 10.4V12.4V14.4C54.4254 14.4 57.8283 15.3982 60.6514 17.3178L61.776 15.664ZM50.352 12.4V10.4H11.664V12.4V14.4H50.352V12.4ZM11.664 12.4H9.664V70H11.664H13.664V12.4H11.664ZM11.664 70V68H2.064V70V72H11.664V70ZM2.064 70H4.064V2.8H2.064H0.0640006V70H2.064ZM2.064 2.8V4.8H50.352V2.8V0.799995H2.064V2.8ZM50.352 2.8V4.8C54.7045 4.8 58.6083 5.61466 62.0958 7.21061L62.928 5.392L63.7603 3.57338C59.6957 1.71333 55.2155 0.799995 50.352 0.799995V2.8ZM62.928 5.392L62.1073 7.21584C65.6845 8.8256 68.7087 11.0813 71.2015 13.9896L72.72 12.688L74.2385 11.3864C71.3553 8.0227 67.8515 5.4144 63.7487 3.56815L62.928 5.392ZM72.72 12.688L71.2303 14.0225C73.8009 16.892 75.7841 20.2494 77.1739 24.1164L79.056 23.44L80.9382 22.7636C79.3839 18.4386 77.1431 14.628 74.2097 11.3535L72.72 12.688ZM79.056 23.44L77.1773 24.1259C78.5633 27.9224 79.264 32.0087 79.264 36.4H81.264H83.264C83.264 31.5753 82.4927 27.0216 80.9347 22.7541L79.056 23.44ZM165.18 60.496L166.895 61.525L166.9 61.5167L166.905 61.5084L165.18 60.496ZM158.268 67.408L157.239 65.693L158.268 67.408ZM90.204 70H88.204V72H90.204V70ZM90.204 60.4V58.4H88.204V60.4H90.204ZM155.388 57.616L156.802 59.0302L156.814 59.0182L156.826 59.006L155.388 57.616ZM155.388 44.08L153.95 45.47L153.962 45.4822L153.974 45.4942L155.388 44.08ZM99.708 38.608L98.679 40.323L98.6873 40.3279L98.6956 40.3328L99.708 38.608ZM92.796 31.696L91.0712 32.7084L91.076 32.7167L91.081 32.725L92.796 31.696ZM92.796 12.4L94.511 13.429L94.516 13.4207L94.5208 13.4124L92.796 12.4ZM99.708 5.392L98.6956 3.66717L98.6873 3.67205L98.679 3.67701L99.708 5.392ZM162.972 2.8H164.972V0.799995H162.972V2.8ZM162.972 12.4V14.4H164.972V12.4H162.972ZM102.588 15.28L101.174 13.8658L101.174 13.8658L102.588 15.28ZM102.588 28.816L101.15 30.206L101.174 30.2304L101.198 30.254L102.588 28.816ZM158.268 34.192L157.239 35.907L158.268 34.192ZM165.18 41.2L163.455 42.2124L163.46 42.2207L163.465 42.229L165.18 41.2ZM167.772 50.8H165.772C165.772 53.9757 164.997 56.8564 163.455 59.4836L165.18 60.496L166.905 61.5084C168.819 58.2476 169.772 54.6643 169.772 50.8H167.772ZM165.18 60.496L163.465 59.467C161.906 62.0655 159.838 64.1339 157.239 65.693L158.268 67.408L159.297 69.123C162.458 67.2261 164.998 64.6865 166.895 61.525L165.18 60.496ZM158.268 67.408L157.239 65.693C154.691 67.2219 151.819 68 148.572 68V70V72C152.493 72 156.085 71.0501 159.297 69.123L158.268 67.408ZM148.572 70V68H90.204V70V72H148.572V70ZM90.204 70H92.204V60.4H90.204H88.204V70H90.204ZM90.204 60.4V62.4H148.572V60.4V58.4H90.204V60.4ZM148.572 60.4V62.4C151.776 62.4 154.561 61.2713 156.802 59.0302L155.388 57.616L153.974 56.2018C152.503 57.6727 150.744 58.4 148.572 58.4V60.4ZM155.388 57.616L156.826 59.006C159.035 56.7205 160.172 53.9529 160.172 50.8H158.172H156.172C156.172 52.8951 155.453 54.6715 153.95 56.226L155.388 57.616ZM158.172 50.8H160.172C160.172 47.6454 159.033 44.8967 156.802 42.6658L155.388 44.08L153.974 45.4942C155.455 46.9753 156.172 48.7066 156.172 50.8H158.172ZM155.388 44.08L156.826 42.69C154.59 40.3772 151.798 39.2 148.572 39.2V41.2V43.2C150.722 43.2 152.474 43.9428 153.95 45.47L155.388 44.08ZM148.572 41.2V39.2H109.404V41.2V43.2H148.572V41.2ZM109.404 41.2V39.2C106.228 39.2 103.348 38.4252 100.72 36.8832L99.708 38.608L98.6956 40.3328C101.956 42.2468 105.54 43.2 109.404 43.2V41.2ZM99.708 38.608L100.737 36.893C98.1385 35.3339 96.0701 33.2655 94.511 30.667L92.796 31.696L91.081 32.725C92.9779 35.8865 95.5175 38.4261 98.679 40.323L99.708 38.608ZM92.796 31.696L94.5208 30.6836C92.9788 28.0564 92.204 25.1757 92.204 22H90.204H88.204C88.204 25.8643 89.1572 29.4476 91.0712 32.7084L92.796 31.696ZM90.204 22H92.204C92.204 18.8243 92.9786 15.9829 94.511 13.429L92.796 12.4L91.081 11.371C89.1574 14.5771 88.204 18.1357 88.204 22H90.204ZM92.796 12.4L94.5208 13.4124C96.0823 10.7522 98.149 8.6598 100.737 7.10698L99.708 5.392L98.679 3.67701C95.507 5.58019 92.9658 8.15979 91.0712 11.3876L92.796 12.4ZM99.708 5.392L100.72 7.11683C103.348 5.57479 106.228 4.8 109.404 4.8V2.8V0.799995C105.54 0.799995 101.956 1.7532 98.6956 3.66717L99.708 5.392ZM109.404 2.8V4.8H162.972V2.8V0.799995H109.404V2.8ZM162.972 2.8H160.972V12.4H162.972H164.972V2.8H162.972ZM162.972 12.4V10.4H109.404V12.4V14.4H162.972V12.4ZM109.404 12.4V10.4C106.229 10.4 103.454 11.5853 101.174 13.8658L102.588 15.28L104.002 16.6942C105.562 15.1347 107.331 14.4 109.404 14.4V12.4ZM102.588 15.28L101.174 13.8658C98.9428 16.0967 97.804 18.8454 97.804 22H99.804H101.804C101.804 19.9066 102.521 18.1753 104.002 16.6942L102.588 15.28ZM99.804 22H97.804C97.804 25.1528 98.9406 27.9205 101.15 30.206L102.588 28.816L104.026 27.426C102.523 25.8715 101.804 24.0951 101.804 22H99.804ZM102.588 28.816L101.198 30.254C103.484 32.4634 106.251 33.6 109.404 33.6V31.6V29.6C107.309 29.6 105.532 28.8806 103.978 27.378L102.588 28.816ZM109.404 31.6V33.6H148.572V31.6V29.6H109.404V31.6ZM148.572 31.6V33.6C151.819 33.6 154.691 34.3781 157.239 35.907L158.268 34.192L159.297 32.477C156.085 30.5499 152.493 29.6 148.572 29.6V31.6ZM158.268 34.192L157.239 35.907C159.827 37.4598 161.894 39.5522 163.455 42.2124L165.18 41.2L166.905 40.1876C165.01 36.9598 162.469 34.3802 159.297 32.477L158.268 34.192ZM165.18 41.2L163.465 42.229C164.997 44.7829 165.772 47.6243 165.772 50.8H167.772H169.772C169.772 46.9357 168.819 43.3771 166.895 40.171L165.18 41.2Z" fill="white" mask="url(#path-1-outside-1_39_66)"/>
<defs>
<linearGradient id="paint0_linear_39_66" x1="90" y1="-22" x2="90" y2="77.5" gradientUnits="userSpaceOnUse">
<stop stop-color="#61CE6E"/>
<stop offset="0.673077" stop-color="#098C02"/>
<stop offset="1" stop-color="#031E51"/>
</linearGradient>
</defs>
</svg>
