<svg viewBox="0 0 78 78" fill="none" xmlns="http://www.w3.org/2000/svg">
<path d="M65.0051 69.4688H71.693L50.6086 48.3844C58.6372 38.7867 58.1497 24.4359 49.1461 15.4324C39.6247 5.91093 24.1161 5.91093 14.5793 15.4324C5.05786 24.9539 5.05786 40.4625 14.5793 49.9992C21.511 56.9309 31.5961 58.8199 40.2493 55.6664L36.5016 51.9187C30.027 53.4727 22.9278 51.7359 17.8852 46.6934C10.1766 38.9848 10.1766 26.4469 17.8852 18.7383C25.5938 11.0297 38.1317 11.0297 45.8403 18.7383C53.5489 26.4469 53.5489 38.9848 45.8403 46.6934C45.2461 47.2875 44.6063 47.8512 43.9512 48.3539L43.9969 48.3996L43.9512 48.4301L65.0051 69.4688Z" fill="#031E51"/>
</svg>
